# xmcd
#
# Track frame offsets:
#	150
#	17155
#	31138
#	47597
#	62723
#	79099
#	100730
#	118828
#	159393
#	172177
#
# Disc length: 2455 seconds
#
# Revision: 0
# Processed by: cddbd v1.5.2PL0 Copyright (c) Steve Scherf et al.
# Submitted via: EZCDAudioConverter 5.5.1.1
#
DISCID=7909950a
DTITLE=Honey B. Family - Honey B. Family Sings And Plays
DYEAR=2017
DGENRE=
TTITLE0=Beware Believers!
TTITLE1=Daily Bread
TTITLE2=Ay-Yi-Yi
TTITLE3=Keep Your Lamp Trimmed And Burning
TTITLE4=Shamrock
TTITLE5=Down To The River
TTITLE6=Wonderland
TTITLE7=Mean Town Blues
TTITLE8=Why
TTITLE9=Cripple Creek
EXTD=
EXTT0=
EXTT1=
EXTT2=
EXTT3=
EXTT4=
EXTT5=
EXTT6=
EXTT7=
EXTT8=
EXTT9=
PLAYORDER=
